<svg version="1.2" xmlns="http://www.w3.org/2000/svg" viewBox="0 0 344 344" width="344" height="344">
	<title>image_processing20201202-31633-my7v65</title>
	<style>
		.s0 { fill: #e80a3b }
		.s1 { fill: #0051fe }
	</style>
	<g id="Background">
		<path id="Path 1" class="s0" d="m160.3 4.1c-5.9 0.4-14.8 1.4-19.8 2.4-5 0.9-14.6 3.5-21.5 5.8-6.9 2.2-17 6.4-22.5 9.2-5.5 2.8-13.8 7.6-18.5 10.7-4.7 3.2-12.7 9.3-17.8 13.8-5 4.4-12.7 12.2-16.9 17.3-4.2 5-10 12.8-12.9 17.2-2.8 4.4-7.2 12.1-9.7 17-2.4 4.9-5.9 13.1-7.6 18-1.8 4.9-4 12.4-5.1 16.5-1 4.1-2.3 10.6-2.9 14.5-0.6 3.9-1.3 9.9-1.6 13.5l-0.5 6.5c4.4-7 6.6-9.8 7.6-10.7 1-0.9 3.6-2.4 5.6-3.2 2.9-1.2 7.4-1.6 18.3-1.6h14.5c3.2-13.6 5.7-21.3 7.7-26 2-4.7 5.7-11.9 8.1-16 2.4-4.1 6.3-10 8.7-13 2.3-3 8.1-9.2 12.9-13.8 4.7-4.5 12.5-10.8 17.3-13.9 4.9-3.1 11.9-7.2 15.8-8.9 3.9-1.8 10.4-4.3 14.5-5.7 4.1-1.4 11.8-3.2 17-4.1 5.2-0.9 14.7-1.6 21-1.6 6.3 0 15.8 0.7 21 1.6 5.2 0.9 12.9 2.7 17 4.1 4.1 1.4 10.6 3.9 14.5 5.7 3.9 1.7 10.9 5.8 15.7 8.9 4.9 3.1 12.9 9.6 17.9 14.5 5 4.8 11.3 11.6 13.9 15.2 2.6 3.6 6.4 9.2 8.3 12.5 1.9 3.3 5.1 9.8 7 14.5 2 4.7 4.7 13.2 6.1 19 1.4 5.8 2.6 11.9 2.6 13.5 0.1 2.9-1 3.6-23.2 16.9-12.8 7.6-40.7 24.2-62.1 36.7l-38.7 22.9-66-39h-59v16.5c86.2 51.1 113.3 67 115.8 68.2 2.6 1.3 6.6 2.3 8.9 2.3 2.4 0 5.8-0.6 7.5-1.3 1.8-0.8 19.5-11 39.3-22.7 19.8-11.7 53.3-31.7 74.5-44.3 21.2-12.6 39.4-23.7 40.4-24.6 1-0.9 3.2-3.6 4.8-6.1 2.5-4 2.8-5.4 2.8-12.8 0-4.5-0.7-13.3-1.5-19.5-0.8-6.1-2.6-15.5-4-20.7-1.4-5.2-3.7-12.6-5.2-16.5-1.4-3.9-4.7-11.3-7.3-16.5-2.6-5.2-7.5-13.6-10.8-18.5-3.3-4.9-9.5-13-13.8-18-4.4-4.9-11.6-12.1-16.2-16-4.6-3.8-12.2-9.6-17-12.8-4.8-3.3-13.7-8.3-19.7-11.2-6-2.9-16-6.9-22-8.8-6-2-14.8-4.3-19.5-5.1-4.7-0.9-12.5-1.9-17.5-2.2-5-0.2-10.4-0.6-12.2-0.7-1.7-0.1-8 0.1-14 0.4z"/>
		<path id="Path 2" class="s1" d="m15.5 152.9c-2.2 1-5 2.9-6.1 4.2-1.2 1.3-3.1 4-4.3 5.9-2.1 3.5-2.1 4-2.1 81.5 0 53.4 0.4 79.3 1.1 82 0.7 2.5 2.8 5.7 5.7 8.5 3.3 3.2 6.1 5 9.4 5.8 3.6 0.9 41 1.2 153.1 1.2 127.5 0 148.9-0.2 153.2-1.5 3.2-0.9 6.3-2.8 8.7-5.2 2-2.1 4.4-5.5 5.3-7.6 1.3-3.2 1.5-13.1 1.5-76.5v-72.7c-4.3 7-7.1 10.2-9 11.6-1.9 1.4-10.6 6.7-19.2 11.7l-15.8 9.2v87l-249.5-0.5-0.5-102.5h191l58-34c0-5.4-0.2-7.7-0.5-8.5-0.4-1.3-16.7-1.5-138.2-1.5-131.8 0-138 0.1-141.8 1.9z"/>
	</g>
</svg>
